<!DOCTYPE svg PUBLIC "-//W3C//DTD SVG 1.1//EN" "http://www.w3.org/Graphics/SVG/1.1/DTD/svg11.dtd">
<!-- Uploaded to: SVG Repo, www.svgrepo.com, Transformed by: SVG Repo Mixer Tools -->
<svg height="800px" width="800px" version="1.1" id="Capa_1" xmlns="http://www.w3.org/2000/svg" xmlns:xlink="http://www.w3.org/1999/xlink" viewBox="0 0 314.155 314.155" xml:space="preserve" fill="#000d70" stroke="#000d70">
<g id="SVGRepo_bgCarrier" stroke-width="0"/>
<g id="SVGRepo_tracerCarrier" stroke-linecap="round" stroke-linejoin="round"/>
<g id="SVGRepo_iconCarrier"> <g> <g> <path style="fill:#ffea00;" d="M300.982,144.364v-29.779c0-10.427-8.496-18.901-18.917-18.901c-6.799,0-13.059,3.688-16.404,9.54 c-3.356-5.858-9.627-9.54-16.421-9.54c-10.421,0-18.901,8.474-18.901,18.901v29.501H83.816v-29.501 c0-10.427-8.485-18.901-18.917-18.901c-6.793,0-13.059,3.688-16.41,9.54c-3.345-5.858-9.605-9.54-16.404-9.54 c-10.427,0-18.917,8.474-18.917,18.901v29.779C5.613,145.577,0,152.071,0,159.762s5.619,14.18,13.168,15.409v24.383 c0,10.432,8.485,18.917,18.917,18.917c6.799,0,13.059-3.704,16.404-9.556c3.35,5.852,9.616,9.556,16.41,9.556 c10.427,0,18.917-8.485,18.917-18.917v-29.501H230.35v29.501c0,10.432,8.479,18.917,18.901,18.917 c6.793,0,13.059-3.704,16.421-9.556c3.34,5.852,9.605,9.556,16.404,9.556c10.421,0,18.917-8.485,18.917-18.917V175.17 c7.56-1.229,13.163-7.718,13.163-15.409C314.144,152.071,308.542,145.577,300.982,144.364z M309.118,159.762 c0,4.944-3.427,9.236-8.137,10.372v-20.745C305.692,150.526,309.118,154.818,309.118,159.762z M230.35,149.09v15.969H83.816 V149.09C83.816,149.09,230.35,149.09,230.35,149.09z M13.173,149.384v20.745c-4.716-1.137-8.153-5.428-8.153-10.372 C5.02,154.812,8.458,150.521,13.173,149.384z"/> </g> </g> </g>
</svg>